# xmcd
#
# Track frame offsets: 
#        150
#        14306
#        33617
#        47379
#        60700
#        75470
#        88455
#        98646
#        106831
#        118894
#        135892
#        154838
#        171077
#        182996
#        197958
#
# Disc length: 3155 seconds
#
# Revision: 0
# Processed by: cddbd v1.5.2PL0 Copyright (c) Steve Scherf et al.
# Submitted via: ExactAudioCopyFreeDBPlugin 1.0
#
DISCID=c20c510f
DTITLE=Maon Gonzo Mode-R - Kaz'Om Vol.1
DYEAR=2008
DGENRE=Hip-Hop
TTITLE0=Maon, Mode-R and Gonzo - Style Libre
TTITLE1=Gonzo, Maon and Mode-R - Historique
TTITLE2=Bapt, Maon, Mode-R and Tom - Noël
TTITLE3=Maon and Gonzo - Nos Lifes
TTITLE4=Gonzo and Maon - Mission Braquage
TTITLE5=Mode-R, Maon, Gonzo and Roby - Soirée Glauque
TTITLE6=Maon and Gonzo - Samedi Après-midi
TTITLE7=Gonzo and Maon - Ragga Style Session
TTITLE8=Gonzo, Maon, Noé and Mode-R - Geneva By Night
TTITLE9=Gonzo, Maon and Mode-R - Le Consommateur
TTITLE10=Maon and Mode-R - Le Bras Cassé
TTITLE11=Maon, Gonzo and Mode-R - Ecologie
TTITLE12=Maon, Noé and Gonzo - A L'ancienne
TTITLE13=Maon - Bizness Malsain
TTITLE14=Andrea - Le Poison Des Passions and Bonus
EXTD=
EXTT0=
EXTT1=
EXTT2=
EXTT3=
EXTT4=
EXTT5=
EXTT6=
EXTT7=
EXTT8=
EXTT9=
EXTT10=
EXTT11=
EXTT12=
EXTT13=
EXTT14=
PLAYORDER=
